<svg version="1.1" xmlns="http://www.w3.org/2000/svg" xmlns:xlink="http://www.w3.org/1999/xlink" width="53.0303" height="53.0303" viewBox="304.51933,291.18599,53.0303,53.0303"><defs><clipPath id="clip-1"><rect x="304.51933" y="291.18599" width="53.0303" height="53.0303" id="clip-1" fill="none"/></clipPath></defs><g fill="none" fill-rule="nonzero" stroke="none" stroke-width="1" stroke-linecap="butt" stroke-linejoin="miter" stroke-miterlimit="10" stroke-dasharray="" stroke-dashoffset="0" font-family="none" font-weight="none" font-size="none" text-anchor="none" style="mix-blend-mode: normal"><g><g clip-path="url(#clip-1)" id="Group 1"><g id="Group 1" fill="#ffffff"><path d="M337.66327,317.70114v19.88636h-3.31439v-33.14394h13.25758v-2.59613h6.46322l-0.97576,-0.96692l0.99461,-0.96692h-6.48148v-8.72761h-19.88636v46.40152h-3.31498v-26.51515h-19.88636v13.25758h13.25758v19.88636h26.51515v-13.25758h13.25758v-13.25758zM343.01521,294.13212h2.2585v2.2585h-2.2585zM338.98903,294.13212h2.2585v2.2585h-2.2585zM309.06108,316.44904h-2.2585v-2.25909h2.2585zM312.93996,316.44904h-2.2585v-2.25909h2.2585zM351.33802,322.93052h-2.2585v-2.25909h2.2585zM355.21689,322.93052h-2.2585v-2.25909h2.2585z" id="CompoundPath 1"/></g></g></g></g></svg>